<svg xmlns="http://www.w3.org/2000/svg" width="37.697" height="20.902" viewBox="0 0 37.697 20.902">
  <path id="Tracciato_416953" data-name="Tracciato 416953" d="M16.879-8.323a10.424,10.424,0,0,0,9.037-3.492l-3.007-2.767a7.945,7.945,0,0,1-5.528,2.3,6.478,6.478,0,0,1-6.039-6.443A6.21,6.21,0,0,1,17.819-25.2a6.513,6.513,0,0,1,5.09,2.371l3.007-2.776a10.45,10.45,0,0,0-8.328-3.586c-6.3,0-10.989,4.367-10.989,10.468S11.324-8.733,16.879-8.323ZM39.873-8.6H44.3L41.113-28.845H35.6L22.909-14.581l3.007,2.767,4.985-5.41,7.829.727ZM30.9-17.224l6.657-7.353L38.73-16.5Z" transform="translate(-6.599 29.191)" fill="#2b2b2b"/>
</svg>
